<svg xmlns="http://www.w3.org/2000/svg" width="22.203" height="21.686" viewBox="0 0 22.203 21.686">
  <g id="グループ_9" data-name="グループ 9" transform="translate(-993 -1442)">
    <circle id="楕円形_5" data-name="楕円形 5" cx="3" cy="3" r="3" transform="translate(993 1456)" fill="#b9ffff"/>
    <path id="パス_6" data-name="パス 6" d="M4.382,0c.972,0,4.382,6.777,4.382,9.6s-1.962,5.11-4.382,5.11S0,12.421,0,9.6,3.41,0,4.382,0Z" transform="translate(1003.329 1458.169) rotate(-130)" fill="#b9ffff"/>
    <path id="パス_7" data-name="パス 7" d="M3.124,0c.693,0,3.124,4.83,3.124,6.842a3.413,3.413,0,0,1-3.124,3.642A3.413,3.413,0,0,1,0,6.842C0,4.83,2.431,0,3.124,0Z" transform="translate(1003.177 1459.928) rotate(-69)" fill="#b9ffff"/>
  </g>
</svg>
